<?xml version="1.0"?><svg xmlns="http://www.w3.org/2000/svg"  viewBox="0 0 50 50" width="50px" height="50px">    <path d="M 19.25 13 L 19 14 C 19 14 19.375 13.625 19.75 13.625 L 20.125 13.625 L 20.125 17.25 C 20.125 17.75 20.074 17.916 20 18 L 21 18 C 20.894 17.92 20.875 17.75 20.875 17.25 L 20.875 13.626953 L 21.25 13.626953 C 21.625 13.626953 22 14 22 14 L 21.75 13 L 19.25 13 z M 23 13 C 23 13 23.125 13.375 23.125 14 L 23.125 17.5 C 23.125 17.75 23 18 23 18 L 24 18 C 24 18 23.875 17.75 23.875 17.25 L 23.875 15.625 L 25.126953 15.625 L 25.126953 17.25 C 25.126953 17.75 25.001953 18 25.001953 18 L 26 18 C 26 18 25.875 17.75 25.875 17.25 L 25.875 13.75 C 25.875 13.375 25.998047 13 25.998047 13 L 25 13 C 25 13 25.126953 13.375 25.126953 13.75 L 25.126953 15 L 23.875 15 L 23.875 13.75 C 23.875 13.375 24 13 24 13 L 23 13 z M 27 13 C 27 13 27.125 13.375 27.125 13.75 L 27.125 17.25 C 27.125 17.75 27 18 27 18 L 29.25 18 L 29.375 17 C 29.375 17 29.018344 17.380594 28.902344 17.433594 C 28.814344 17.471594 28.168625 17.574219 28.140625 17.574219 C 28.061625 17.574219 28.015953 17.534125 28.001953 17.453125 C 27.997953 17.415125 28 15.625 28 15.625 L 28.375 15.625 C 28.75 15.625 29 15.75 29 15.75 L 29 14.875 C 29 14.875 28.75 15 28.375 15 L 28 15 L 28 13.5 L 28.75 13.5 C 29 13.5 29.065 13.655 29.125 13.75 L 29.25 13 L 27 13 z M 0 14 C 0.634 14.686 1 15.174391 1 16.025391 L 1 32.824219 C 1 33.689219 0.63595312 34.305047 0.001953125 34.998047 L 5.4316406 35 C 7.9936406 35 10.009 33.614547 10 28.810547 C 10.009 26.013547 8.7332031 24.354344 7.4082031 23.652344 C 8.7972031 22.920344 9.4805156 21.154688 9.4785156 18.929688 C 9.4785156 15.112687 7.877 13.991 5.625 14 L 0 14 z M 4.8378906 15.408203 C 5.8978906 15.404203 6.634625 16.034578 6.640625 18.892578 C 6.633625 21.105578 6.449 22.787922 4.875 22.794922 C 4.179 22.787922 3.7617188 22.655547 3.7617188 22.185547 C 3.7627187 21.732547 3.7626719 16.568812 3.7636719 16.132812 C 3.7636719 15.749813 4.2098906 15.404203 4.8378906 15.408203 z M 46.007812 21.626953 C 44.155813 21.637953 42.398391 23.14975 42.400391 25.09375 C 42.400391 27.64975 44.435109 28.752953 45.162109 29.126953 C 46.270109 29.702953 47.477375 30.209078 47.484375 31.830078 C 47.484375 33.055078 46.712281 33.710938 45.738281 33.710938 C 44.042281 33.710938 43.652484 32.501016 43.646484 31.791016 C 43.652484 31.534016 43.710844 30.981156 44.089844 30.535156 C 43.040844 30.790156 42.417016 31.647531 42.416016 32.769531 C 42.416016 34.195531 43.642281 35.366 45.738281 35.375 C 48.471281 35.366 50 33.659891 50 31.337891 C 50 30.003891 49.513188 28.704641 47.367188 27.556641 C 45.031188 26.314641 44.550438 25.86225 44.523438 24.90625 C 44.513437 23.82525 45.411437 23.171906 46.148438 23.128906 C 47.261438 23.063906 48.030187 23.446703 48.367188 24.345703 L 49.404297 22.072266 C 47.286297 22.404266 47.725813 21.614953 46.007812 21.626953 z M 10.039062 22 C 10.383063 22.303 10.531437 22.980672 10.523438 23.513672 L 10.523438 33.507812 C 10.530438 33.975812 10.476 34.604 10 35 L 15.59375 35 L 16 32.453125 C 15.297 33.474125 13.308 33.598906 13 33.503906 L 13 28.732422 L 14.251953 28.732422 C 14.645953 28.732422 15.093922 29.004438 15.419922 29.273438 L 15.419922 26.746094 C 15.026922 27.142094 14.655953 27.270672 14.251953 27.263672 L 13.001953 27.263672 L 13.001953 23.472656 C 13.006953 23.472656 14.025953 23.473656 14.501953 23.472656 C 14.964953 23.472656 15.316953 23.875078 15.626953 24.205078 L 16.001953 22.003906 C 16.008953 22.003906 10.820063 22 10.039062 22 z M 18.291016 22 C 18.760016 22.606 18.827312 22.985719 18.695312 23.511719 L 16.46875 33.505859 C 16.37075 33.940859 16.139234 34.634094 15.740234 34.996094 L 18.771484 34.996094 C 18.311484 34.648094 18.1955 34.101859 18.3125 33.505859 L 18.625 32 L 21.125 32 L 21.439453 33.449219 C 21.531453 33.820219 21.441156 34.737 21.035156 35 L 24.490234 35 C 24.183234 34.736 23.783422 34.104328 23.607422 33.486328 L 21.458984 23.53125 C 21.327984 23.00225 21.394328 22.606 21.861328 22 L 18.291016 22 z M 23.162109 22 L 22.75 24.621094 C 22.988 24.129094 23.705 23.5 24.125 23.5 L 24.875 23.5 C 25.046 23.5 25.129 23.82 25.125 24.125 C 25.125 24.655 25.042 36.271 25 37 C 24.973 37.74 24.536 38.696 24.25 39 L 28.75 39 C 28.463 38.696 28.026 37.742 28 37 C 27.958 36.271 27.871 24.654047 27.875 24.123047 C 27.875 23.818047 27.955 23.498047 28.125 23.498047 L 28.875 23.498047 C 29.296 23.498047 30.034578 24.162094 30.267578 24.621094 L 29.855469 22.001953 L 29.855469 22 L 23.162109 22 z M 30.285156 22 C 30.626156 22.303 30.774625 22.980672 30.765625 23.513672 L 30.765625 33.449219 C 30.774625 34.136219 30.573094 34.802 30.246094 35 L 35.736328 35 L 36.216797 32.416016 C 35.512797 33.446016 33.597828 33.554219 33.298828 33.449219 L 33.298828 23.513672 C 33.298828 22.980672 33.428766 22.302 33.759766 22 L 30.285156 22 z M 36.039062 22 C 36.383063 22.303 36.531438 22.980672 36.523438 23.513672 L 36.523438 33.507812 C 36.530438 33.975812 36.476 34.604 36 35 L 41.59375 35 L 42 32.453125 C 41.297 33.474125 39.308 33.598906 39 33.503906 L 39 28.732422 L 40.251953 28.732422 C 40.645953 28.732422 41.093922 29.004438 41.419922 29.273438 L 41.419922 26.746094 C 41.026922 27.142094 40.655953 27.270672 40.251953 27.263672 L 39.001953 27.263672 L 39.001953 23.472656 C 39.006953 23.472656 40.025953 23.473656 40.501953 23.472656 C 40.964953 23.472656 41.316953 23.875078 41.626953 24.205078 L 42.001953 22.003906 C 42.008953 22.003906 36.820062 22 36.039062 22 z M 5.0488281 24.794922 C 6.2758281 24.801922 7.001 26.146438 7 28.773438 C 7 31.708437 6.8087031 33.322266 5.2207031 33.322266 L 5.2207031 33.324219 C 4.3467031 33.324219 3.7626719 32.852922 3.7636719 32.294922 C 3.7636719 31.797922 3.7626719 25.692062 3.7636719 25.289062 C 3.7636719 24.900063 4.5228281 24.801922 5.0488281 24.794922 z M 19.923828 26.498047 L 20.806641 30.576172 L 18.982422 30.576172 L 19.923828 26.498047 z"/></svg>